PathFileType	4	(X/Y/Z)	E:\Qualisys_Data\Carbon_Farble_Plate\Data\Amateur_Runner\S1\T2\S1T2V21_c3d.trc
DataRate	CameraRate	NumFrames	NumMarkers	Units	OrigDataRate	OrigDataStartFrame	OrigNumFrames
200.000000	200.000000	4	39	mm	200.000000	177	284
Frame#	Time	LSHO			RSHO			LICST			RICST			LASIS			LHEEL			RASIS			LTROC			RTROC			SACR			LTH1			LSK4			LTH2			LTH3			RHM5			LSK2			LTH4			RTH1			LTOE			RTH2			RTH3			RTH4			LLEP			RLEP			LSK1			LSK3			RSK1			LHM5			RSK2			LFT1			RSK3			RSK4			LLME			RLME			RTOE			RHEEL			RFT1			RFT2			LFT2			
		X1	Y1	Z1	X2	Y2	Z2	X3	Y3	Z3	X4	Y4	Z4	X5	Y5	Z5	X6	Y6	Z6	X7	Y7	Z7	X8	Y8	Z8	X9	Y9	Z9	X10	Y10	Z10	X11	Y11	Z11	X12	Y12	Z12	X13	Y13	Z13	X14	Y14	Z14	X15	Y15	Z15	X16	Y16	Z16	X17	Y17	Z17	X18	Y18	Z18	X19	Y19	Z19	X20	Y20	Z20	X21	Y21	Z21	X22	Y22	Z22	X23	Y23	Z23	X24	Y24	Z24	X25	Y25	Z25	X26	Y26	Z26	X27	Y27	Z27	X28	Y28	Z28	X29	Y29	Z29	X30	Y30	Z30	X31	Y31	Z31	X32	Y32	Z32	X33	Y33	Z33	X34	Y34	Z34	X35	Y35	Z35	X36	Y36	Z36	X37	Y37	Z37	X38	Y38	Z38	X39	Y39	Z39	

178	0.885	1023.6806640625	1524.628662109375	-548.62548828125	1082.827514648438	1500.560913085938	-229.1639251708984	1038.34033203125	1050.159912109375	-527.8344116210938	1050.898559570312	1050.577392578125	-230.3645629882812	1082.35791015625	1009.97314453125	-499.84912109375	1007.013549804688	267.1851501464844	-435.3407897949219	1082.779052734375	997.5096435546876	-239.4257659912109	1000.137756347656	931.5253295898438	-554.5453491210938	952.694580078125	931.4580688476562	-215.9187316894531	926.64453125	1070.391845703125	-374.7830200195312	1189.104614257812	876.939208984375	-508.1399230957031	1091.171020507812	408.3305053710938	-467.9713439941406	1137.071044921875	822.333251953125	-548.9512939453125	1257.95068359375	799.171875	-499.6412353515625	638.8009033203125	66.00131225585938	-242.5693054199219	1146.170654296875	489.8844604492188	-503.6730651855469	1198.793579101562	744.8516235351562	-530.0567626953125	1027.980712890625	773.3294067382812	-236.0978240966797	1239.230834960938	163.8240966796875	-441.6909790039062	958.615478515625	800.1240844726562	-205.5324249267578	987.1233520507812	681.0794067382812	-249.2119140625	915.7506713867188	711.2210083007812	-223.4086303710938	1297.849487304688	637.191650390625	-492.6878356933594	864.3533935546875	547.200927734375	-263.9943542480469	1215.589477539062	441.3556213378906	-494.5213928222656	1154.011108398438	361.3733520507812	-490.8264465332031	753.1995239257812	391.2098693847656	-243.7902221679688	1165.760864257812	160.5078430175781	-507.6123657226562	685.5536499023438	434.9555969238281	-257.3025512695312	1004.836181640625	237.1831512451172	-410.4669799804688	701.7709350585938	305.0798645019531	-252.9489440917969	637.5109252929688	348.597900390625	-281.0985107421875	1067.643920898438	274.9095764160156	-486.4203491210938	600.4483032226562	209.5206909179688	-257.3207702636719	702.1710815429688	47.54250335693359	-315.4800720214844	524.5584716796875	214.6352386474609	-309.0217895507812	517.257568359375	183.6473846435547	-341.3579711914062	505.9568176269531	188.8563690185547	-287.6435241699219	999.7865600585938	236.7013244628906	-463.136962890625
179	0.89	1043.583740234375	1527.241333007812	-549.759033203125	1104.793823242188	1504.785522460938	-230.8687133789062	1064.629760742188	1054.351806640625	-526.8491821289062	1074.3017578125	1053.441528320312	-231.3746032714844	1105.208374023438	1012.91845703125	-500.938720703125	1045.342651367188	255.8567352294922	-436.0202941894531	1105.911987304688	999.9715576171876	-240.4422912597656	1022.468688964844	935.8021850585938	-555.2332153320312	974.7904052734376	935.8008422851562	-216.6197509765625	949.7289428710938	1074.3994140625	-374.8917541503906	1211.40283203125	880.7598876953125	-508.0746459960938	1123.201782226562	400.996826171875	-468.7627868652344	1159.218383789062	826.0094604492188	-548.7085571289062	1280.116821289062	802.7426147460938	-499.1614990234375	642.8321533203125	68.90360260009766	-242.9646148681641	1174.11767578125	485.23046875	-504.8035888671875	1220.6845703125	748.1231689453125	-528.7442016601562	1047.52880859375	776.3037109375	-235.5805969238281	1282.524291992188	163.0922088623047	-441.1832580566406	978.3479614257812	804.5125732421875	-206.0877075195312	1005.0419921875	684.310791015625	-248.0826416015625	934.2177734375	716.0285034179688	-223.4787750244141	1319.486083984375	639.9026489257812	-492.9410705566406	879.4979248046875	553.058349609375	-263.6998596191406	1245.723876953125	439.8146362304688	-494.9378051757812	1187.755493164062	356.8356323242188	-491.1617431640625	767.0698852539062	398.2383422851562	-242.4159698486328	1209.69482421875	156.5819702148438	-507.5380859375	699.132080078125	442.2568359375	-257.3629760742188	1044.705932617188	225.4926605224609	-411.3548278808594	715.0982666015625	312.2239379882812	-252.1515808105469	651.0922241210938	355.6676940917969	-281.634765625	1105.914794921875	266.1875	-486.9160766601562	614.381103515625	216.4066162109375	-257.0078735351562	706.1148071289062	46.14597702026367	-314.7132263183594	541.3673706054688	227.5768280029297	-310.4869689941406	532.3848876953125	197.3841857910156	-343.1588745117188	520.0379028320312	202.8089141845703	-289.6704406738281	1040.010864257812	224.6437377929688	-464.1131591796875
180	0.895	1063.778076171875	1529.501098632812	-550.3473510742188	1126.54150390625	1508.711547851562	-232.2103271484375	1087.915771484375	1057.846069335938	-527.2745971679688	1097.667358398438	1056.270263671875	-232.4440002441406	1127.534790039062	1015.624633789062	-501.495361328125	1083.662475585938	244.51171875	-436.9537658691406	1128.746826171875	1002.627685546875	-241.4509735107422	1044.538696289062	939.357666015625	-556.1798706054688	996.9736328125	939.7052001953124	-217.1619567871094	972.8380126953124	1078.319946289062	-375.6100158691406	1233.0615234375	883.890869140625	-508.1364440917969	1154.794555664062	393.3594360351562	-469.3417663574219	1180.576782226562	828.8990478515625	-548.4599609375	1301.863525390625	806.1273803710938	-498.8801879882812	647.4833984375	72.92330932617188	-243.1481170654297	1201.940307617188	479.7761840820312	-506.1731262207031	1241.9541015625	751.2838134765625	-527.4795532226562	1066.897827148438	779.1338500976562	-234.4166412353516	1325.118041992188	163.0164337158203	-440.66650390625	998.1199951171876	809.1497192382812	-206.0241546630859	1022.793212890625	688.2418212890625	-246.9490966796875	952.5078735351562	721.2735595703125	-223.0792541503906	1340.6943359375	642.36328125	-492.915771484375	894.6448974609375	558.4493408203125	-262.9095458984375	1275.385498046875	437.9537658691406	-495.7090454101562	1221.457763671875	352.767578125	-491.78369140625	781.105224609375	405.3724365234375	-241.5369262695312	1253.207641601562	152.9413146972656	-507.6038513183594	713.2887573242188	449.4177551269531	-257.4027404785156	1084.552124023438	213.9517211914062	-411.7458801269531	728.5632934570312	319.1584167480469	-249.8099975585938	665.2210083007812	362.5901794433594	-281.0439147949219	1144.046508789062	257.5155029296875	-487.2900695800781	627.8597412109375	223.4932556152344	-257.1151733398438	710.9929809570312	45.47755813598633	-313.6337585449219	559.152099609375	240.0011291503906	-311.8464660644531	548.9277954101562	211.6739501953125	-345.244384765625	535.0443115234375	217.4474029541016	-291.7733154296875	1080.4833984375	213.1539306640625	-464.8323059082031
181	0.9	1083.814453125	1531.696044921875	-551.0834350585938	1148.207641601562	1512.653930664062	-233.4185943603516	1109.67041015625	1060.40234375	-528.0777587890625	1120.81787109375	1059.1845703125	-233.3892364501953	1150.053833007812	1018.104797363281	-502.4348449707031	1122.873413085938	233.0836639404297	-437.0951232910156	1151.38134765625	1005.135375976562	-241.9925537109375	1066.445678710938	942.9201049804688	-556.4549560546875	1018.68212890625	943.9737548828124	-217.3697052001953	996.134521484375	1081.533569335938	-376.2460327148438	1254.51953125	886.724853515625	-509.4498596191406	1187.182861328125	385.5865478515625	-470.6986694335938	1201.736450195312	831.4647216796875	-548.1052856445312	1323.118896484375	808.3824462890625	-499.1478881835938	653.2617797851562	77.8218994140625	-243.5968933105469	1229.610717773438	474.2122497558594	-507.4713745117188	1262.350463867188	753.3425903320312	-525.88232421875	1086.762084960938	782.1771850585938	-233.3656921386719	1367.414428710938	163.2715911865234	-440.4304809570312	1017.437072753906	813.1652221679688	-205.3427734375	1041.326171875	691.8942260742188	-245.3375244140625	970.5725708007812	726.268798828125	-223.0074462890625	1360.959350585938	643.5869750976562	-493.1483764648438	910.9353637695312	564.1571655273438	-262.1234741210938	1305.541870117188	435.9200439453125	-496.3936462402344	1255.114135742188	348.0477905273438	-492.3998107910156	795.63037109375	412.0840454101562	-241.6208801269531	1296.246704101562	149.7219390869141	-507.475341796875	728.4361572265625	456.1182556152344	-257.4270935058594	1124.815063476562	202.7708435058594	-412.4309387207031	743.0679321289062	325.8813781738281	-249.7271118164062	679.868896484375	369.8080139160156	-281.2212524414062	1181.677490234375	250.6493682861328	-488.1664733886719	641.954833984375	231.1619415283203	-257.0960693359375	715.83203125	43.83572006225586	-311.6908264160156	577.6342163085938	252.8538970947266	-312.8282165527344	566.5602416992188	225.6920623779297	-346.4367980957031	551.6852416992188	231.8324432373047	-293.4169921875	1120.718994140625	202.0674743652344	-465.6290283203125
